<?xml version="1.0" encoding="UTF-8"?>
<svg version="1.1" xmlns="http://www.w3.org/2000/svg" width="512" height="512">
<path d="M0 0 C31.73217521 -1.82984414 63.41114729 -3.33373045 95.18003326 -4.18735702 C98.9799772 -4.28984021 102.77981068 -4.39598169 106.57958984 -4.50439453 C107.33564023 -4.52590399 108.09169061 -4.54741344 108.87065162 -4.5695747 C119.43247321 -4.87761142 129.96858647 -5.38084029 140.51369222 -6.04625474 C250.87654161 -13.00679568 250.87654161 -13.00679568 289.5700376 19.88402724 C296.41368681 25.9386758 302.81225364 32.36889118 309.09375 39 C309.95551015 39.90028852 310.81727031 40.80057704 311.70514441 41.72814703 C332.03573996 63.15293829 347.8717668 84.53317284 347.78401756 115.06263542 C347.50171792 125.55533594 345.76782446 135.88429779 343 146 C343.38580734 145.30879059 343.77161469 144.61758118 344.16911316 143.90542603 C352.45871647 129.06025133 360.82388285 114.27849071 369.46044922 99.63232422 C370.86159781 97.23664008 372.2352386 94.82800558 373.59765625 92.41015625 C379.27083793 82.43081034 384.68359756 75.28327765 396.0078125 71.66015625 C407.04368336 69.22534923 416.30577686 71.24877453 425.75 77.1875 C431.51093731 81.60013283 435.14888869 88.07735085 437 95 C437.2370335 97.63493055 437.36992074 100.1189426 437.375 102.75 C437.40335938 104.06484375 437.43171875 105.3796875 437.4609375 106.734375 C436.90959996 116.03614897 431.35325112 124.22353071 426.6875 132 C425.42898718 134.12718999 424.17119933 136.25480903 422.9140625 138.3828125 C422.26727539 139.47368164 421.62048828 140.56455078 420.95410156 141.68847656 C417.78378292 147.06106553 414.67346459 152.4678959 411.5625 157.875 C410.30345388 160.05993529 409.04433897 162.24483093 407.78515625 164.4296875 C407.16012207 165.51475586 406.53508789 166.59982422 405.89111328 167.71777344 C402.76319852 173.14659942 399.63141552 178.57319281 396.5 184 C395.24998121 186.16665583 393.99998122 188.3333225 392.75 190.5 C370.25 229.5 370.25 229.5 368.37158203 232.75585938 C367.13289998 234.90295136 365.8942921 237.05008614 364.65576172 239.19726562 C361.7146665 244.29588809 358.77278587 249.39405296 355.82830811 254.49072266 C354.43041399 256.91047665 353.03293911 259.33047263 351.63549805 261.75048828 C350.64347676 263.46801052 349.65084571 265.18518052 348.65820312 266.90234375 C348.06201172 267.93488281 347.46582031 268.96742188 346.8515625 270.03125 C346.32385254 270.94455078 345.79614258 271.85785156 345.25244141 272.79882812 C343.2455653 276.32592266 342.86826078 278.28784009 342.84178162 282.3656311 C342.8319928 283.50429123 342.82220398 284.64295135 342.81211853 285.81611633 C342.80636307 287.07127548 342.8006076 288.32643463 342.79467773 289.61962891 C342.78477814 290.93665298 342.77487854 292.25367706 342.76467896 293.61061096 C342.7375992 297.22812623 342.7166063 300.84565458 342.69667697 304.46321535 C342.67483632 308.24156369 342.64743825 312.01987155 342.62062073 315.79818726 C342.57066781 322.95566551 342.52573864 330.11316621 342.48259836 337.27068841 C342.43324818 345.41812762 342.37832184 353.56552621 342.32291877 361.71292615 C342.20905882 378.47524804 342.10296473 395.2376071 342 412 C327.48 412 312.96 412 298 412 C298 427.84 298 443.68 298 460 C185.47 460 72.94 460 -43 460 C-43 424.69 -43 389.38 -43 353 C-52.9 353 -62.8 353 -73 353 C-75.44855082 350.55144918 -75.25085521 349.91890862 -75.25396729 346.55895996 C-75.25960693 345.62512985 -75.26524658 344.69129974 -75.27105713 343.72917175 C-75.26498444 342.18777275 -75.26498444 342.18777275 -75.25878906 340.61523438 C-75.2622937 339.53550858 -75.26579834 338.45578278 -75.26940918 337.34333801 C-75.27824038 333.76007737 -75.27237238 330.17701279 -75.265625 326.59375 C-75.26697125 324.11275189 -75.26891144 321.63175404 -75.27142334 319.15075684 C-75.27475529 313.27766971 -75.2677368 307.40465422 -75.2571218 301.53157759 C-75.24961226 296.84280005 -75.2522677 292.15410645 -75.26074219 287.46533203 C-75.27230805 281.01155657 -75.2741657 274.55786247 -75.26763153 268.1040802 C-75.2662936 265.63841228 -75.26794773 263.17274093 -75.27259064 260.70707703 C-75.27764733 257.26621229 -75.26995756 253.82561068 -75.25878906 250.38476562 C-75.26283752 249.35716629 -75.26688599 248.32956696 -75.27105713 247.27082825 C-75.26541748 246.33699814 -75.25977783 245.40316803 -75.25396729 244.44104004 C-75.25321323 243.62692909 -75.25245918 242.81281815 -75.25168228 241.97403717 C-75 240 -75 240 -73 238 C-63.1 238 -53.2 238 -43 238 C-43 175.3 -43 112.6 -43 48 C-28.81 48 -14.62 48 0 48 C0 32.16 0 16.32 0 0 Z " fill="#E9F5FE" transform="translate(75,26)"/>
<path d="M0 0 C14.19 0 28.38 0 43 0 C43 62.7 43 125.4 43 190 C57.69144531 189.97679687 72.38289063 189.95359375 87.51953125 189.9296875 C96.80273507 189.9194737 106.08593485 189.90976358 115.36914062 189.90234375 C130.11793401 189.89046101 144.86670461 189.87646666 159.61547852 189.84912109 C170.35532307 189.8292179 181.09514918 189.81629087 191.83501166 189.81182301 C197.5243115 189.80921042 203.2135586 189.80304892 208.90284157 189.78853989 C214.25350827 189.77500446 219.60410029 189.77076915 224.95478249 189.77378464 C226.92245896 189.77323266 228.89013782 189.76923125 230.85779953 189.76158905 C233.53682843 189.75169098 236.21557254 189.75401224 238.89460754 189.75949097 C240.07212994 189.75075244 240.07212994 189.75075244 241.27344066 189.74183738 C245.06033965 189.76288134 246.76857988 189.84571992 250 192 C250.37752342 193.97403717 250.37752342 193.97403717 250.38095093 196.44104004 C250.3894104 197.37487015 250.39786987 198.30870026 250.40658569 199.27082825 C250.39747665 200.81222725 250.39747665 200.81222725 250.38818359 202.38476562 C250.39606903 204.00435432 250.39606903 204.00435432 250.40411377 205.65666199 C250.41736087 209.24000342 250.4085588 212.82290374 250.3984375 216.40625 C250.40045687 218.88724859 250.40336716 221.36824661 250.40713501 223.84924316 C250.41213297 229.7223645 250.40160526 235.59532468 250.3856827 241.46842241 C250.3744183 246.15723622 250.37840146 250.84586118 250.39111328 255.53466797 C250.40846216 261.98847449 250.4112486 268.44209795 250.4014473 274.8959198 C250.3994404 277.36158795 250.40192161 279.82726384 250.40888596 282.29292297 C250.41647125 285.73390554 250.4049368 289.17429611 250.38818359 292.61523438 C250.39425629 293.64283371 250.40032898 294.67043304 250.40658569 295.72917175 C250.39812622 296.66300186 250.38966675 297.59683197 250.38095093 298.55895996 C250.37981985 299.37307091 250.37868877 300.18718185 250.37752342 301.02596283 C250.25294069 301.6773951 250.12835796 302.32882736 250 303 C246.22627803 305.51581465 243.2635191 305.27293121 238.89460754 305.24050903 C237.64119561 305.24307231 237.64119561 305.24307231 236.36246222 305.24568737 C233.552509 305.24899097 230.74279269 305.23796427 227.93286133 305.22705078 C225.92259222 305.22648686 223.9123227 305.22680286 221.90205383 305.22793579 C216.4354278 305.22851103 210.96888904 305.21672903 205.50228333 305.20278788 C199.79276102 305.19030902 194.08323685 305.18911227 188.373703 305.18673706 C177.55774714 305.18051391 166.74183158 305.16409181 155.92589349 305.14403808 C143.6140928 305.12170503 131.30229023 305.11069218 118.99047434 305.10064721 C93.66028872 305.0797263 68.33015836 305.04303965 43 305 C43 324.47 43 343.94 43 364 C141.34 364 239.68 364 341 364 C341 379.84 341 395.68 341 412 C228.47 412 115.94 412 0 412 C0 376.69 0 341.38 0 305 C-9.9 305 -19.8 305 -30 305 C-32.44855082 302.55144918 -32.25085521 301.91890862 -32.25396729 298.55895996 C-32.25960693 297.62512985 -32.26524658 296.69129974 -32.27105713 295.72917175 C-32.26498444 294.18777275 -32.26498444 294.18777275 -32.25878906 292.61523438 C-32.2622937 291.53550858 -32.26579834 290.45578278 -32.26940918 289.34333801 C-32.27824038 285.76007737 -32.27237238 282.17701279 -32.265625 278.59375 C-32.26697125 276.11275189 -32.26891144 273.63175404 -32.27142334 271.15075684 C-32.27475529 265.27766971 -32.2677368 259.40465422 -32.2571218 253.53157759 C-32.24961226 248.84280005 -32.2522677 244.15410645 -32.26074219 239.46533203 C-32.27230805 233.01155657 -32.2741657 226.55786247 -32.26763153 220.1040802 C-32.2662936 217.63841228 -32.26794773 215.17274093 -32.27259064 212.70707703 C-32.27764733 209.26621229 -32.26995756 205.82561068 -32.25878906 202.38476562 C-32.26283752 201.35716629 -32.26688599 200.32956696 -32.27105713 199.27082825 C-32.26541748 198.33699814 -32.25977783 197.40316803 -32.25396729 196.44104004 C-32.25321323 195.62692909 -32.25245918 194.81281815 -32.25168228 193.97403717 C-32 192 -32 192 -30 190 C-20.1 190 -10.2 190 0 190 C0 127.3 0 64.6 0 0 Z " fill="#E5414E" transform="translate(32,74)"/>
<path d="M0 0 C14.19 0 28.38 0 43 0 C43 19.47 43 38.94 43 59 C141.34 59 239.68 59 341 59 C341 74.84 341 90.68 341 107 C228.47 107 115.94 107 0 107 C0 71.69 0 36.38 0 0 Z " fill="#006694" transform="translate(32,379)"/>
<path d="M0 0 C5.76093731 4.41263283 9.39888869 10.88985085 11.25 17.8125 C11.4870335 20.44743055 11.61992074 22.9314426 11.625 25.5625 C11.65335938 26.87734375 11.68171875 28.1921875 11.7109375 29.546875 C11.15959996 38.84864897 5.60325112 47.03603071 0.9375 54.8125 C-0.32101282 56.93968999 -1.57880067 59.06730903 -2.8359375 61.1953125 C-3.48272461 62.28618164 -4.12951172 63.37705078 -4.79589844 64.50097656 C-7.96621708 69.87356553 -11.07653541 75.2803959 -14.1875 80.6875 C-15.44654612 82.87243529 -16.70566103 85.05733093 -17.96484375 87.2421875 C-18.90239502 88.86979004 -18.90239502 88.86979004 -19.85888672 90.53027344 C-22.98680148 95.95909942 -26.11858448 101.38569281 -29.25 106.8125 C-30.50001879 108.97915583 -31.75001878 111.1458225 -33 113.3125 C-40.5 126.3125 -48 139.3125 -55.5 152.3125 C-56.11931396 153.38604736 -56.73862793 154.45959473 -57.37670898 155.56567383 C-58.62076792 157.72190213 -59.86506942 159.87799049 -61.10961914 162.03393555 C-63.991617 167.0271073 -66.87139803 172.02150447 -69.74215698 177.02114868 C-81.59156474 197.65720728 -81.59156474 197.65720728 -85.75 204.3125 C-88.36764402 208.53109565 -90.91208144 212.7772038 -93.38671875 217.08203125 C-93.71452835 217.65108688 -94.04233795 218.22014252 -94.38008118 218.80644226 C-96.05274615 221.71088627 -97.71989898 224.61841928 -99.38476562 227.52734375 C-100.61479573 229.67253673 -101.85304277 231.8130438 -103.1003418 233.94824219 C-104.09033402 235.66713945 -105.05241312 237.40324912 -105.95629883 239.16894531 C-109.26329933 245.30853662 -113.99014091 247.79009483 -120.0625 250.9375 C-122.12351927 252.05130909 -124.18337701 253.16726963 -126.2421875 254.28515625 C-127.84078613 255.14391357 -127.84078613 255.14391357 -129.47167969 256.02001953 C-135.96458291 259.5701309 -142.309088 263.37822699 -148.67895508 267.14306641 C-149.61892334 267.69526855 -150.5588916 268.2474707 -151.52734375 268.81640625 C-152.34452881 269.29924072 -153.16171387 269.7820752 -154.00366211 270.27954102 C-157.52688813 272.24614571 -161.12927736 274.03340623 -164.75 275.8125 C-165.05557886 267.86579729 -165.2843081 259.92167209 -165.42355824 251.97048855 C-165.49050685 248.27528834 -165.580721 244.58419323 -165.73071289 240.89135742 C-166.4990164 221.45230208 -164.93642648 207.48093748 -153.30386353 191.03048706 C-151.32829764 188.21056143 -149.65898811 185.30587638 -147.98046875 182.30078125 C-146.96749176 180.57473024 -145.95319983 178.84945016 -144.9375 177.125 C-139.81587742 168.38743049 -134.76352288 159.61233667 -129.75 150.8125 C-124.21534975 141.10000127 -118.62659895 131.42106995 -112.98193359 121.77197266 C-106.1850964 110.14932291 -99.46381062 98.48325537 -92.75 86.8125 C-92.30865723 86.04599121 -91.86731445 85.27948242 -91.41259766 84.48974609 C-87.67188234 77.98976716 -83.99191076 71.46237036 -80.4140625 64.87109375 C-72.65608746 50.61171709 -64.59091198 36.54569787 -56.35400391 22.55761719 C-54.92669737 20.11490262 -53.52552205 17.66004178 -52.13671875 15.1953125 C-46.4691758 5.22558381 -41.05367367 -1.90829485 -29.7421875 -5.52734375 C-18.70631664 -7.96215077 -9.44422314 -5.93872547 0 0 Z " fill="#FE9933" transform="translate(500.75,103.1875)"/>
<path d="M0 0 C14.19 0 28.38 0 43 0 C43 62.7 43 125.4 43 190 C28.81 190 14.62 190 0 190 C0 127.3 0 64.6 0 0 Z " fill="#006694" transform="translate(32,74)"/>
<path d="M0 0 C4.05285525 0.59459018 6.97929718 1.90428832 10.51953125 3.94140625 C11.54111328 4.52470703 12.56269531 5.10800781 13.61523438 5.70898438 C14.67033203 6.32064453 15.72542969 6.93230469 16.8125 7.5625 C17.88693359 8.17802734 18.96136719 8.79355469 20.06835938 9.42773438 C22.71587518 10.94564344 25.35951856 12.46989764 28 14 C28 18.85530681 26.22872257 21.67421623 23.875 25.75 C23.42979004 26.53584473 22.98458008 27.32168945 22.52587891 28.13134766 C18.28005709 35.59374501 13.93757459 43.00152061 9.59716797 50.40917969 C5.01018561 58.24205076 0.49280862 66.11294632 -4 74 C-9.53951839 83.72143706 -15.13375194 93.40895317 -20.78344727 103.06689453 C-25.02617279 110.32211736 -29.2399661 117.59354142 -33.4375 124.875 C-34.05367188 125.94379395 -34.66984375 127.01258789 -35.3046875 128.11376953 C-37.87906931 132.58072422 -40.45225923 137.04836421 -43.02441406 141.51660156 C-44.38115258 143.87346291 -45.73833221 146.23006924 -47.09594727 148.58642578 C-48.36546119 150.79006869 -49.63423268 152.99413955 -50.90209961 155.19873047 C-54.06137846 160.68195044 -57.26103509 166.13646001 -60.52807617 171.55615234 C-69.57423624 186.57556888 -78.35094116 201.74916431 -87 217 C-91.15020378 215.73735777 -94.68170244 214.19097854 -98.3984375 211.9609375 C-99.37167969 211.38085938 -100.34492188 210.80078125 -101.34765625 210.203125 C-102.34667969 209.59984375 -103.34570312 208.9965625 -104.375 208.375 C-105.39722656 207.76398438 -106.41945313 207.15296875 -107.47265625 206.5234375 C-109.98492073 205.02077463 -112.49385721 203.51284285 -115 202 C-113.73577908 197.86510217 -112.19522439 194.3006019 -110.015625 190.5703125 C-109.4172583 189.53994873 -108.8188916 188.50958496 -108.20239258 187.44799805 C-107.55810303 186.35140869 -106.91381348 185.25481934 -106.25 184.125 C-105.57460749 182.96619672 -104.89972953 181.8070934 -104.2253418 180.64770508 C-102.49226559 177.67116958 -100.75286125 174.69838932 -99.01141357 171.72674561 C-96.85369256 168.04295554 -94.7035127 164.35475718 -92.55175781 160.66748047 C-91.38899256 158.67524119 -90.22557737 156.68338111 -89.06152344 154.69189453 C-84.83783741 147.45963712 -80.67301726 140.19542131 -76.52954102 132.91699219 C-72.81299675 126.39819926 -69.04037891 119.91359365 -65.25 113.4375 C-60.13575001 104.69595632 -55.07925995 95.92276999 -50.0625 87.125 C-42.42035615 73.72369273 -34.7185439 60.35746968 -27 47 C-17.96202273 31.35487039 -8.94657555 15.69761037 0 0 Z " fill="#FEBA33" transform="translate(479,130)"/>
<path d="M0 0 C5.94 0 11.88 0 18 0 C18 78.54 18 157.08 18 238 C12.06 238 6.12 238 0 238 C0 159.46 0 80.92 0 0 Z " fill="#D0DCE5" transform="translate(75,26)"/>
<path d="M0 0 C3.34433279 1.67216639 4.92010528 2.66946564 7.44219971 5.18823242 C8.10400238 5.84439545 8.76580505 6.50055847 9.44766235 7.17660522 C10.16263885 7.89563019 10.87761536 8.61465515 11.61425781 9.35546875 C12.37562042 10.11332672 13.13698303 10.87118469 13.92141724 11.65200806 C16.43704251 14.15882913 18.94528008 16.67289714 21.453125 19.1875 C23.19589446 20.92892271 24.93896075 22.67004841 26.68231201 24.41088867 C30.33378964 28.05941704 33.98162296 31.71154079 37.62695312 35.36621094 C42.31023782 40.06090685 47.00246506 44.74654596 51.69743729 49.42955017 C55.29712913 53.02203255 58.89206542 56.61924314 62.48555756 60.21792603 C64.21453587 61.94824249 65.94501203 63.67706354 67.67697906 65.40438843 C70.09061945 67.81297682 72.49780086 70.22783603 74.90332031 72.64453125 C75.62639374 73.36355621 76.34946716 74.08258118 77.0944519 74.82339478 C77.74497528 75.4795578 78.39549866 76.13572083 79.06573486 76.81176758 C79.63573841 77.38252518 80.20574196 77.95328278 80.79301834 78.54133606 C82 80 82 80 82 82 C54.94 82 27.88 82 0 82 C0 54.94 0 27.88 0 0 Z " fill="#D3DDE6" transform="translate(334,27)"/>
<path d="M0 0 C0.91531116 -0.00538554 1.83062233 -0.01077108 2.7736702 -0.01631981 C5.84762173 -0.03065308 8.92114589 -0.02348241 11.99511719 -0.01637268 C14.19608915 -0.02207339 16.39705815 -0.02903649 18.59802246 -0.03717041 C24.58137688 -0.05514881 30.56458503 -0.05392475 36.54795837 -0.04822803 C41.53833198 -0.04514329 46.52867721 -0.05122057 51.51904678 -0.05726677 C63.96175644 -0.07212973 76.40440089 -0.06848547 88.84710741 -0.05640347 C99.65624892 -0.04646834 110.46521932 -0.05941573 121.27433443 -0.08333766 C132.37121592 -0.1077116 143.46802839 -0.1169408 154.56493759 -0.11068493 C160.79582753 -0.10730767 167.02657603 -0.10978155 173.25744629 -0.12693596 C179.11468174 -0.14235728 184.97158937 -0.13850302 190.82881165 -0.11963081 C192.98151078 -0.11593175 195.13423394 -0.11909149 197.28691101 -0.1295166 C200.21965136 -0.14263787 203.1512922 -0.13125781 206.08398438 -0.11352539 C207.36977324 -0.1279329 207.36977324 -0.1279329 208.68153763 -0.14263147 C212.47619779 -0.09523654 214.42336939 -0.05412445 217.57452393 2.19634914 C219.70586739 5.37902705 219.51776081 7.649498 219.04199219 11.38768005 C217.75779152 13.07892859 217.75779152 13.07892859 216.04199219 14.38768005 C213.00071275 14.68281343 210.16416268 14.7920735 207.12158203 14.76863098 C205.73658792 14.77565094 205.73658792 14.77565094 204.32361412 14.78281271 C201.21657502 14.79481922 198.10997239 14.78528337 195.00292969 14.77586365 C192.78077943 14.77992683 190.5586312 14.78526728 188.33648682 14.79179382 C182.29115116 14.80550329 176.24596862 14.80015377 170.20063019 14.79065657 C163.88391192 14.78307876 157.56720705 14.79010034 151.25048828 14.79481506 C139.96104738 14.80062836 128.67168445 14.79128598 117.38225913 14.77603705 C107.14184907 14.76263339 96.90154103 14.76496134 86.66113281 14.77879333 C74.77530425 14.79484027 62.8895377 14.800828 51.00369453 14.79195654 C44.70969314 14.78727143 38.41576206 14.78667816 32.12176514 14.79656601 C26.20549245 14.80521066 20.28941305 14.79925955 14.37316132 14.78188324 C12.1974698 14.777905 10.02176212 14.77907514 7.84607697 14.78567123 C4.88462996 14.79382404 1.92380905 14.78364112 -1.03759766 14.76863098 C-1.90616709 14.77532315 -2.77473652 14.78201531 -3.66962624 14.78891027 C-9.5380619 14.73089674 -9.5380619 14.73089674 -11.67405128 12.98517859 C-13.26521015 11.00545894 -13.3907389 9.90566446 -13.39550781 7.38768005 C-13.41484375 6.70705505 -13.43417969 6.02643005 -13.45410156 5.32518005 C-12.95800781 3.38768005 -12.95800781 3.38768005 -11.48687744 1.79081631 C-7.77139496 -0.27070877 -4.14054542 -0.02903066 0 0 Z " fill="#D3DDE6" transform="translate(121.9580078125,193.61231994628906)"/>
<path d="M0 0 C3.78318108 0.63053018 4.54020481 1.59148208 7 4.5 C8.38908556 6.95012399 9.66499178 9.36252692 10.890625 11.890625 C11.24010193 12.59523865 11.58957886 13.29985229 11.949646 14.02581787 C13.05737207 16.2635499 14.15380445 18.50660068 15.25 20.75 C16.00186373 22.27380306 16.75446017 23.79724484 17.5078125 25.3203125 C19.34705087 29.04274563 21.17618489 32.76998758 23 36.5 C23.26103516 36.00298584 23.52207031 35.50597168 23.79101562 34.99389648 C26.4062099 30.01598182 29.0258921 25.04045186 31.6484375 20.06640625 C32.89358741 17.70206091 34.13461907 15.33559932 35.375 12.96875 C36.08311432 11.62488457 36.7914351 10.28112791 37.5 8.9375 C37.82548828 8.31351318 38.15097656 7.68952637 38.48632812 7.04663086 C39.81682111 4.53288894 40.97546136 2.52453864 43 0.5 C45.8125 0.0625 45.8125 0.0625 49 0.5 C52.20318253 3.04400807 53.80837294 4.55093661 54.62818909 8.61120605 C54.62915085 9.77526978 54.63011261 10.9393335 54.63110352 12.13867188 C54.63825882 12.78485977 54.64541412 13.43104767 54.65278625 14.09681702 C54.66962212 16.22152567 54.65030543 18.34410863 54.62890625 20.46875 C54.62973544 21.951784 54.63219673 23.4348179 54.63621521 24.91784668 C54.63906966 28.02152264 54.62440809 31.12447553 54.59692383 34.22802734 C54.56284036 38.19951449 54.56886188 42.16970921 54.5875864 46.14125824 C54.59817248 49.20231839 54.58920424 52.26307957 54.57420158 55.32411194 C54.56903103 56.78808198 54.5694879 58.2520834 54.57574654 59.71604919 C54.58121877 61.7651545 54.56076504 63.81243143 54.53344727 65.86132812 C54.52724869 67.02539185 54.52105011 68.18945557 54.5146637 69.38879395 C53.88941971 73.16847163 52.72931774 74.84719379 50 77.5 C46.5 78.125 46.5 78.125 43 77.5 C40.1175253 74.74435161 39.08799574 73.0502095 38.45410156 69.08666992 C38.4331543 67.81412354 38.41220703 66.54157715 38.390625 65.23046875 C38.37408875 64.54946609 38.35755249 63.86846344 38.34051514 63.16682434 C38.29220697 61.00695629 38.2707049 58.84779125 38.25 56.6875 C38.22182556 55.21676183 38.19189606 53.74605617 38.16015625 52.27539062 C38.08645604 48.68374586 38.03677515 45.09223429 38 41.5 C37.73372803 42.07032959 37.46745605 42.64065918 37.19311523 43.22827148 C35.96816989 45.81180694 34.70370018 48.37394855 33.4375 50.9375 C33.01919922 51.83533203 32.60089844 52.73316406 32.16992188 53.65820312 C28.92088379 60.13185045 28.92088379 60.13185045 24.47265625 61.91015625 C21 61.5 21 61.5 18.33203125 59.58203125 C15.58963507 55.95765842 13.61807069 52.2867573 11.6875 48.1875 C11.32849609 47.44693359 10.96949219 46.70636719 10.59960938 45.94335938 C9.72380415 44.13336192 8.86059209 42.31728007 8 40.5 C7.98541748 41.4787207 7.97083496 42.45744141 7.95581055 43.46582031 C7.89774894 47.10404626 7.8205174 50.74165836 7.73754883 54.37939453 C7.70433628 55.95253522 7.67629283 57.52579401 7.65356445 59.09912109 C7.61994972 61.36346672 7.56763376 63.62673365 7.51171875 65.890625 C7.50213387 66.94240936 7.50213387 66.94240936 7.49235535 68.01544189 C7.37037415 72.08503984 6.95726071 74.60134839 4 77.5 C2.0625 78.03125 2.0625 78.03125 0 78 C-1.0209375 78.01546875 -1.0209375 78.01546875 -2.0625 78.03125 C-4.89125924 77.25562247 -5.52403976 76.00914685 -7 73.5 C-7.38768005 70.4263916 -7.38768005 70.4263916 -7.40405273 66.77539062 C-7.41091599 66.10823532 -7.41777924 65.44108002 -7.42485046 64.75370789 C-7.44311181 62.55433714 -7.43928272 60.35568009 -7.43359375 58.15625 C-7.43815552 56.62455005 -7.44346108 55.09285215 -7.44947815 53.56115723 C-7.45840761 50.35334957 -7.45598772 47.14579091 -7.44604492 43.93798828 C-7.43454822 39.82857693 -7.45477734 35.72002398 -7.48396206 31.6107254 C-7.50231249 28.4485326 -7.50203411 25.28654603 -7.49632454 22.12431335 C-7.49617122 20.60925593 -7.50222455 19.09418462 -7.51461601 17.57917786 C-7.52950564 15.46044099 -7.51886726 13.3432966 -7.50170898 11.22460938 C-7.50154282 10.01977905 -7.50137665 8.81494873 -7.50120544 7.5736084 C-6.72845712 2.83478169 -4.71497585 0.78582931 0 0 Z " fill="#E9F2FB" transform="translate(205,282.5)"/>
<path d="M0 0 C0.69565376 -0.00482883 1.39130752 -0.00965766 2.1080417 -0.01463282 C4.43288151 -0.0258808 6.75661569 -0.00860346 9.08140564 0.00863647 C10.75051165 0.00649004 12.4196162 0.00261149 14.0887146 -0.00286865 C18.61761567 -0.01255849 23.14612226 0.00273623 27.67497563 0.02303743 C32.41367342 0.04060928 37.15235904 0.03708334 41.89108276 0.03631592 C49.84782001 0.03818865 57.80440466 0.05554966 65.76109314 0.08285522 C74.96279205 0.11431651 84.1643239 0.12485102 93.36607271 0.12338412 C102.21608173 0.12216378 111.06603631 0.13237194 119.91602898 0.14896774 C123.68348554 0.15603207 127.45092283 0.15969404 131.2183857 0.16075516 C135.6531785 0.16276304 140.08783084 0.17496454 144.52257729 0.19508743 C146.15118805 0.20093275 147.77981498 0.20338911 149.40843582 0.20223236 C151.62929245 0.20125181 153.8497549 0.21255317 156.07055664 0.22705078 C157.31401383 0.23040247 158.55747103 0.23375416 159.83860874 0.23720741 C162.85537271 0.48491745 164.50579138 0.78980718 166.9717865 2.49447632 C169.15216745 5.76504775 169.60425405 6.69967101 168.9717865 10.49447632 C166.35890713 13.78645183 164.86356908 15.32469498 160.68153286 16.12088871 C158.7936585 16.12176817 158.7936585 16.12176817 156.86764526 16.12266541 C155.81191396 16.13330699 155.81191396 16.13330699 154.73485476 16.14416355 C152.38220144 16.1617319 150.0312029 16.14364694 147.67857361 16.12557983 C145.98975879 16.1307191 144.30094934 16.13800044 142.6121521 16.14726257 C138.02947922 16.16578257 133.44738787 16.15283493 128.86473918 16.13317227 C124.06997543 16.11679205 119.27524869 16.12559767 114.48046875 16.13069153 C106.42954716 16.13521275 98.37885789 16.1193398 90.32798767 16.09140015 C81.017135 16.05933723 71.7067011 16.05936808 62.39581865 16.07661492 C53.44112831 16.09247159 44.48659164 16.08575269 35.53190804 16.0686779 C31.71975685 16.06180138 27.90772863 16.06284598 24.09557915 16.07022285 C19.60813269 16.07787702 15.12116361 16.06578824 10.6337986 16.03837395 C8.98584282 16.03148027 7.33784253 16.03140267 5.689888 16.03858948 C3.44237183 16.04726252 1.19633627 16.03136726 -1.05105591 16.00914001 C-2.93836473 16.00492963 -2.93836473 16.00492963 -4.863801 16.00063419 C-8.61518866 15.40058777 -9.80713803 14.53156963 -12.0282135 11.49447632 C-12.5907135 7.99447632 -12.5907135 7.99447632 -12.0282135 4.49447632 C-8.20499929 0.50352766 -5.42367472 -0.00475086 0 0 Z " fill="#D4DEE7" transform="translate(121.02821350097656,107.50552368164063)"/>
<path d="M0 0 C0.70226088 -0.00694553 1.40452175 -0.01389106 2.12806326 -0.02104706 C4.48125215 -0.03934369 6.83343589 -0.0290461 9.18666077 -0.01878357 C10.8737056 -0.02584076 12.5607441 -0.03458493 14.24777222 -0.04489136 C18.83047305 -0.06741817 23.41282906 -0.06443792 27.99556422 -0.05556989 C31.82023773 -0.05046431 35.64484619 -0.05774908 39.469513 -0.06504196 C48.49182307 -0.08205156 57.51396405 -0.07846461 66.53627014 -0.06175232 C75.84655768 -0.04482967 85.15637642 -0.06066505 94.46661276 -0.0929752 C102.45824815 -0.11965939 110.44973751 -0.12695028 118.44141299 -0.11846012 C123.21529928 -0.11352749 127.98890347 -0.11576459 132.76275444 -0.13624763 C137.25188318 -0.1545864 141.74033692 -0.14866846 146.22942924 -0.12404823 C147.87697512 -0.11903455 149.52457226 -0.12254461 151.17207718 -0.13519669 C153.42172983 -0.15110624 155.66915398 -0.13620042 157.91870117 -0.11352539 C159.17728408 -0.11293908 160.43586699 -0.11235277 161.73258877 -0.1117487 C165.92389717 0.68621031 167.4410099 2.17930015 170.02284241 5.5146637 C170.02284241 8.87946445 169.68291551 10.68239761 167.58534241 13.3271637 C164.193284 15.90512809 161.57270438 15.64738532 157.36212158 15.66183472 C156.3235442 15.66734975 156.3235442 15.66734975 155.26398546 15.6729762 C152.93253909 15.68403238 150.60113726 15.68786012 148.26966858 15.69166565 C146.60262917 15.69792881 144.93559116 15.70457548 143.26855469 15.71157837 C138.73129689 15.72900103 134.19404963 15.73954344 129.65676665 15.7477839 C126.82345569 15.75293106 123.99014801 15.7590069 121.15683937 15.76529503 C112.29617112 15.78435009 103.43551123 15.79858092 94.57482642 15.806907 C84.33893719 15.81668353 74.10326398 15.84301254 63.86745089 15.88340789 C55.96081423 15.91354293 48.05423958 15.92837336 40.14754659 15.93168801 C35.42282335 15.93404137 30.6983308 15.94303878 25.97366905 15.96814919 C21.52901309 15.99138951 17.08474036 15.99567953 12.64003944 15.9853878 C11.00860445 15.98489135 9.37715086 15.99124387 7.74577332 16.00494385 C5.51822565 16.02260385 3.29206217 16.01558724 1.06451416 16.00241089 C-0.1819177 16.00479924 -1.42834955 16.0071876 -2.71255207 16.00964832 C-6.60447186 15.41954932 -8.27261243 14.33954076 -10.97715759 11.5146637 C-11.53965759 8.0146637 -11.53965759 8.0146637 -10.97715759 4.5146637 C-7.80674021 0.17944251 -5.21148827 0.01162627 0 0 Z " fill="#D4DEE7" transform="translate(119.97715759277344,150.48533630371094)"/>
<path d="M0 0 C3.13411375 3.27607709 4.81357581 6.488798 6.35009766 10.72070312 C6.76377594 11.84536987 7.17745422 12.97003662 7.60366821 14.12878418 C8.03609833 15.3340979 8.46852844 16.53941162 8.9140625 17.78125 C9.37352373 19.04039234 9.8338552 20.29921744 10.29501343 21.55773926 C11.50270623 24.86045519 12.69905458 28.16716617 13.8928833 31.47491455 C15.1070159 34.83328932 16.33105156 38.18804735 17.5546875 41.54296875 C18.93126967 45.31783221 20.30612188 49.09326802 21.67422485 52.87121582 C22.08159882 53.99588257 22.48897278 55.12054932 22.90869141 56.27929688 C23.26524811 57.26571167 23.62180481 58.25212646 23.98916626 59.26843262 C24.65750837 61.0744878 25.37371594 62.86361269 26.13851929 64.63098145 C27.3925371 68.07945269 26.90997358 70.49010191 26 74 C24.375 76 24.375 76 22 77 C18.4375 77 18.4375 77 15 76 C12.26605368 72.26498748 10.83659123 68.15593115 9.3125 63.8125 C8.87550781 62.58144531 8.43851563 61.35039062 7.98828125 60.08203125 C7 57 7 57 7 55 C0.07 55 -6.86 55 -14 55 C-14.99 58.3 -15.98 61.6 -17 65 C-17.63363932 66.84500861 -18.29180683 68.68230421 -19 70.5 C-19.309375 71.3146875 -19.61875 72.129375 -19.9375 72.96875 C-21 75 -21 75 -24 77 C-26.9375 77.4375 -26.9375 77.4375 -30 77 C-32.4375 75 -32.4375 75 -34 72 C-33.70211753 64.92591705 -31.34773403 58.78108768 -28.88671875 52.1953125 C-28.47589554 51.07615448 -28.06507233 49.95699646 -27.64179993 48.80392456 C-26.33164052 45.24129778 -25.00959666 41.68321166 -23.6875 38.125 C-22.80979767 35.74116113 -21.93283709 33.35704902 -21.05664062 30.97265625 C-18.72401011 24.64089585 -16.38460251 18.31238593 -14 12 C-13.64870026 11.04204529 -13.29740051 10.08409058 -12.93545532 9.09710693 C-12.59557587 8.19736145 -12.25569641 7.29761597 -11.90551758 6.37060547 C-11.60978348 5.5745993 -11.31404938 4.77859314 -11.00935364 3.95846558 C-8.58963067 -0.73656296 -4.70992183 -0.57841145 0 0 Z " fill="#E9F1FA" transform="translate(165,283)"/>
<path d="M0 0 C8.32986235 3.66513944 13.84738455 15.63084943 18.125 23.375 C18.125 24.035 18.125 24.695 18.125 25.375 C18.785 25.375 19.445 25.375 20.125 25.375 C20.3415625 24.72917969 20.558125 24.08335937 20.78125 23.41796875 C22.63617833 19.21741883 25.10944404 15.51933524 27.625 11.6875 C28.12386719 10.91599609 28.62273437 10.14449219 29.13671875 9.34960938 C32.85050517 3.64949483 32.85050517 3.64949483 35.125 1.375 C42.13581917 0.81858578 42.13581917 0.81858578 45.125 2.5 C46.6778605 5.41161344 46.52117638 7.05748563 46.125 10.375 C44.50035135 13.8369318 42.48255658 17.02298223 40.4375 20.25 C39.90705078 21.10980469 39.37660156 21.96960938 38.83007812 22.85546875 C34.73973714 29.47027785 34.73973714 29.47027785 32.57958984 32.64941406 C32.11375488 33.34518555 31.64791992 34.04095703 31.16796875 34.7578125 C30.74926514 35.36254395 30.33056152 35.96727539 29.89916992 36.59033203 C28.97565404 38.33698217 28.97565404 38.33698217 29.27246094 40.234375 C30.43215446 43.1462286 32.02250918 45.60886461 33.72265625 48.2421875 C34.44903138 49.38642454 35.17492815 50.53096536 35.90039062 51.67578125 C37.04268876 53.46545531 38.18893967 55.25222044 39.34399414 57.03369141 C40.46153452 58.76242772 41.56175017 60.50125063 42.66015625 62.2421875 C43.324104 63.27456543 43.98805176 64.30694336 44.67211914 65.37060547 C46.28406649 68.70393165 46.54546266 70.72023404 46.125 74.375 C44.0678308 77.38163191 42.79321695 78.21520899 39.25 79.0625 C33.48518359 77.79424039 30.45448716 72.0101677 27.3515625 67.26171875 C26.47828157 65.86577266 25.61109009 64.46599881 24.75 63.0625 C24.30011719 62.34771484 23.85023437 61.63292969 23.38671875 60.89648438 C20.125 55.63708682 20.125 55.63708682 20.125 53.375 C19.465 53.375 18.805 53.375 18.125 53.375 C17.90714844 54.01050781 17.68929687 54.64601563 17.46484375 55.30078125 C15.58090089 59.623414 13.146283 63.54573976 10.6875 67.5625 C10.19701172 68.38169922 9.70652344 69.20089844 9.20117188 70.04492188 C8.72357422 70.82802734 8.24597656 71.61113281 7.75390625 72.41796875 C7.1053064 73.48567505 7.1053064 73.48567505 6.44360352 74.57495117 C5.125 76.375 5.125 76.375 2.125 78.375 C-0.8125 78.8125 -0.8125 78.8125 -3.875 78.375 C-6.3125 76.3125 -6.3125 76.3125 -7.875 73.375 C-7.95122686 66.10486369 -3.84475238 60.99555957 0.0625 55.125 C0.70896484 54.13242187 1.35542969 53.13984375 2.02148438 52.1171875 C4.36736547 48.52163143 6.74360303 44.94709546 9.125 41.375 C8.82631863 37.15744334 7.07785915 34.36312328 4.78125 30.8828125 C4.11222656 29.84769531 3.44320312 28.81257813 2.75390625 27.74609375 C1.33821618 25.5874911 -0.08104044 23.43122319 -1.50390625 21.27734375 C-2.17292969 20.23964844 -2.84195313 19.20195312 -3.53125 18.1328125 C-4.14806641 17.1958252 -4.76488281 16.25883789 -5.40039062 15.29345703 C-7.11797194 11.89412475 -7.69003536 9.1717893 -7.875 5.375 C-5.51624803 1.94408805 -4.17129231 0.54408161 0 0 Z " fill="#E9F2FB" transform="translate(80.875,281.625)"/>
<path d="M0 0 C0.69134033 -0.0038269 1.38268066 -0.00765381 2.0949707 -0.01159668 C3.55063338 -0.01430787 5.00634544 -0.00700211 6.46191406 0.00976562 C8.68145045 0.0311916 10.89775096 0.00994228 13.1171875 -0.015625 C14.53646543 -0.01298158 15.95574135 -0.00785629 17.375 0 C19.29892578 0.00676758 19.29892578 0.00676758 21.26171875 0.01367188 C25.23815605 0.6144449 26.91181854 1.66443453 29.6875 4.53125 C30.3125 7.46875 30.3125 7.46875 29.6875 10.53125 C27.88671875 13.203125 27.88671875 13.203125 24.6875 15.53125 C20.73319667 16.14854564 16.86475884 16.00217048 12.875 15.84375 C11.26334961 15.80991211 11.26334961 15.80991211 9.61914062 15.77539062 C6.97466112 15.71662441 4.33090067 15.62694833 1.6875 15.53125 C1.6875 21.14125 1.6875 26.75125 1.6875 32.53125 C3.28980469 32.48484375 4.89210938 32.4384375 6.54296875 32.390625 C8.65362718 32.35310218 10.76430578 32.31670257 12.875 32.28125 C14.45764648 32.23097656 14.45764648 32.23097656 16.07226562 32.1796875 C23.89848469 32.08093395 23.89848469 32.08093395 27.890625 34.359375 C29.6875 36.53125 29.6875 36.53125 30.25 39.53125 C29.558744 43.21794866 28.59867267 44.22365801 25.6875 46.53125 C23.03027344 46.98535156 23.03027344 46.98535156 20.046875 46.921875 C18.44199219 46.90253906 18.44199219 46.90253906 16.8046875 46.8828125 C15.69351563 46.84929687 14.58234375 46.81578125 13.4375 46.78125 C11.74753906 46.75417969 11.74753906 46.75417969 10.0234375 46.7265625 C7.24442821 46.67946065 4.46585631 46.60771852 1.6875 46.53125 C1.6875 52.47125 1.6875 58.41125 1.6875 64.53125 C3.37359375 64.48484375 5.0596875 64.4384375 6.796875 64.390625 C9.01039897 64.35310764 11.22394207 64.31670745 13.4375 64.28125 C15.10425781 64.23097656 15.10425781 64.23097656 16.8046875 64.1796875 C17.87460937 64.16679687 18.94453125 64.15390625 20.046875 64.140625 C21.03139648 64.11967773 22.01591797 64.09873047 23.03027344 64.07714844 C26.43944855 64.65975278 27.5896719 65.83439032 29.6875 68.53125 C30.25 71.53125 30.25 71.53125 29.6875 74.53125 C26.88046477 77.46356666 25.20180167 78.45591527 21.15405273 79.04882812 C19.80998024 79.07500518 18.46532681 79.07842461 17.12109375 79.0625 C16.4051857 79.0663269 15.68927765 79.07015381 14.95167542 79.07409668 C13.44473863 79.07680816 11.93775416 79.06950039 10.4309082 79.05273438 C8.12800134 79.03127796 5.82820219 79.05257369 3.52539062 79.078125 C2.05728481 79.0754822 0.58918092 79.0703582 -0.87890625 79.0625 C-1.56441055 79.07059692 -2.24991486 79.07869385 -2.95619202 79.08703613 C-6.06757182 79.02614265 -7.96060446 78.79061251 -10.49191284 76.92492676 C-12.92516304 73.72573115 -12.82567642 71.71302449 -12.84594727 67.71484375 C-12.85456284 67.03793488 -12.86317841 66.361026 -12.87205505 65.66360474 C-12.89471233 63.4315948 -12.88797815 61.20084058 -12.87890625 58.96875 C-12.88414174 57.41462837 -12.89041795 55.86050992 -12.89768982 54.30639648 C-12.90809328 51.0514428 -12.90353335 47.7969263 -12.88891602 44.54199219 C-12.87172106 40.37186021 -12.89523063 36.20310516 -12.93040562 32.03312683 C-12.95237083 28.82457357 -12.95094056 25.61635031 -12.9426403 22.40774536 C-12.94182041 20.87035613 -12.94869115 19.33294276 -12.96341133 17.79562378 C-12.98084484 15.64544115 -12.96633109 13.49773925 -12.94360352 11.34765625 C-12.94264175 10.12506104 -12.94167999 8.90246582 -12.94068909 7.64282227 C-12.3125 4.53125 -12.3125 4.53125 -9.98716736 2.13757324 C-6.49567214 0.04068822 -4.05906926 0.01427813 0 0 Z " fill="#E9F3FC" transform="translate(36.3125,281.46875)"/>
<path d="M0 0 C3.60796363 1.44318545 6.72067342 2.85876794 10.078125 4.73046875 C11.06304932 5.27944824 12.04797363 5.82842773 13.06274414 6.39404297 C14.11453857 6.98588379 15.16633301 7.57772461 16.25 8.1875 C17.33724365 8.7973877 18.4244873 9.40727539 19.54467773 10.03564453 C31.50577661 16.78601012 43.26666915 23.86190934 55 31 C50.99359469 34.43850709 46.80734545 36.89055893 42.1875 39.375 C33.46313081 44.13591338 24.88135655 49.12134403 16.32495117 54.17724609 C15.35920166 54.74523926 14.39345215 55.31323242 13.3984375 55.8984375 C12.12492432 56.65133057 12.12492432 56.65133057 10.82568359 57.41943359 C7.2825088 59.40133386 3.63119994 61.18440003 0 63 C0 42.21 0 21.42 0 0 Z " fill="#515D6E" transform="translate(336,316)"/>
<path d="M0 0 C5.75505706 4.40812881 9.41229986 10.89162011 11.25 17.8125 C11.46143714 20.48704254 11.58272188 23.01821215 11.5625 25.6875 C11.56121094 26.39132813 11.55992187 27.09515625 11.55859375 27.8203125 C11.46007811 33.14015727 10.6135847 37.0853306 8.25 41.8125 C2.02786182 40.1784031 -3.14962009 36.82522638 -8.625 33.5625 C-10.76033112 32.30324034 -12.89575053 31.0441304 -15.03125 29.78515625 C-16.13082031 29.13434082 -17.23039062 28.48352539 -18.36328125 27.81298828 C-23.93780021 24.52019644 -29.53180359 21.26092782 -35.125 18 C-36.15866699 17.39575195 -37.19233398 16.79150391 -38.25732422 16.16894531 C-39.2113916 15.61174805 -40.16545898 15.05455078 -41.1484375 14.48046875 C-41.99067871 13.98828857 -42.83291992 13.4961084 -43.70068359 12.98901367 C-45.02964476 12.22605634 -46.37938213 11.49780893 -47.75 10.8125 C-47.2585199 6.55300583 -44.73976695 3.6841527 -41.75 0.8125 C-28.85074185 -9.05800152 -13.42388184 -8.44121828 0 0 Z " fill="#FE6664" transform="translate(500.75,103.1875)"/>
<path d="M0 0 C1.38294718 0.01329757 2.76582404 0.03715018 4.1484375 0.0703125 C4.85484375 0.07933594 5.56125 0.08835937 6.2890625 0.09765625 C8.03399848 0.12123647 9.77876045 0.15710789 11.5234375 0.1953125 C10.5334375 1.6803125 10.5334375 1.6803125 9.5234375 3.1953125 C9.22332959 5.31161169 9.22332959 5.31161169 9.26947021 7.6739502 C9.26383057 8.5908815 9.25819092 9.50781281 9.25238037 10.45252991 C9.25642883 11.45626144 9.26047729 12.45999298 9.26464844 13.49414062 C9.2611438 14.55289902 9.25763916 15.61165741 9.25402832 16.70249939 C9.24520865 20.21058665 9.25106108 23.7184731 9.2578125 27.2265625 C9.25646592 29.65889525 9.25452545 32.09122774 9.25201416 34.52355957 C9.24906257 39.62461913 9.25336171 44.72560872 9.26269531 49.82666016 C9.2740898 56.37411316 9.26753052 62.9214022 9.25555038 69.46884918 C9.24833276 74.49246461 9.25061928 79.516041 9.25580597 84.53965759 C9.25714273 86.95425943 9.25549382 89.36886479 9.25084686 91.78346252 C9.24578331 95.15456571 9.25348968 98.52540119 9.26464844 101.89648438 C9.26059998 102.90021591 9.25655151 103.90394745 9.25238037 104.93809509 C9.26083984 106.31349205 9.26083984 106.31349205 9.26947021 107.7166748 C9.27060129 108.91238728 9.27060129 108.91238728 9.27175522 110.13225555 C9.40406403 112.50359971 9.40406403 112.50359971 11.5234375 115.1953125 C9.06481349 115.24915098 6.607362 115.28890288 4.1484375 115.3203125 C3.44976562 115.33707031 2.75109375 115.35382813 2.03125 115.37109375 C0.19446264 115.38875517 -1.64258213 115.29834511 -3.4765625 115.1953125 C-5.92511332 112.74676168 -5.72741771 112.11422112 -5.73052979 108.75427246 C-5.73616943 107.82044235 -5.74180908 106.88661224 -5.74761963 105.92448425 C-5.74154694 104.38308525 -5.74154694 104.38308525 -5.73535156 102.81054688 C-5.7388562 101.73082108 -5.74236084 100.65109528 -5.74597168 99.53865051 C-5.75480288 95.95538987 -5.74893488 92.37232529 -5.7421875 88.7890625 C-5.74353375 86.30806439 -5.74547394 83.82706654 -5.74798584 81.34606934 C-5.75131779 75.47298221 -5.7442993 69.59996672 -5.7336843 63.72689009 C-5.72617476 59.03811255 -5.7288302 54.34941895 -5.73730469 49.66064453 C-5.74887055 43.20686907 -5.7507282 36.75317497 -5.74419403 30.2993927 C-5.7428561 27.83372478 -5.74451023 25.36805343 -5.74915314 22.90238953 C-5.75420983 19.46152479 -5.74652006 16.02092318 -5.73535156 12.58007812 C-5.73940002 11.55247879 -5.74344849 10.52487946 -5.74761963 9.46614075 C-5.74197998 8.53231064 -5.73634033 7.59848053 -5.73052979 6.63635254 C-5.72977573 5.82224159 -5.72902168 5.00813065 -5.72824478 4.16934967 C-5.24079302 0.34608533 -3.60549707 0.20255601 0 0 Z " fill="#CF3A45" transform="translate(5.4765625,263.8046875)"/>
<path d="M0 0 C0.8145163 -0.00990463 1.62903259 -0.01980927 2.4682312 -0.03001404 C3.35818283 -0.02551239 4.24813446 -0.02101074 5.16505432 -0.01637268 C6.10516357 -0.02323593 7.04527283 -0.03009918 8.01387024 -0.03717041 C11.12765014 -0.05550141 14.2409292 -0.05159184 17.35475159 -0.0459137 C19.51564702 -0.05047255 21.676541 -0.05577723 23.83743286 -0.0617981 C28.36938868 -0.07074165 32.9011684 -0.06829197 37.43312073 -0.05836487 C43.2452697 -0.04687519 49.05681114 -0.06708069 54.86888027 -0.09628201 C59.33239616 -0.11461492 63.79576569 -0.11435731 68.25930977 -0.10864449 C70.40235814 -0.10849091 72.54541621 -0.1145653 74.68842888 -0.12693596 C77.68363082 -0.14178857 80.67770068 -0.13121069 83.67286682 -0.11402893 C85.00475792 -0.12853088 85.00475792 -0.12853088 86.36355591 -0.14332581 C92.32809026 -0.0715609 92.32809026 -0.0715609 95.56558228 2.19638062 C96.98365784 4.38768005 96.98365784 4.38768005 96.98365784 7.95018005 C95.98365784 11.38768005 95.98365784 11.38768005 94.49061584 13.07727051 C90.68561418 15.06617917 87.10590637 14.81369783 82.87232971 14.79173279 C81.95158157 14.79859604 81.03083344 14.80545929 80.08218384 14.81253052 C77.03876831 14.83083144 73.99586658 14.82695665 70.95240784 14.8212738 C68.8377821 14.82583368 66.72315785 14.83113867 64.60853577 14.8371582 C60.17671182 14.84609553 55.74506803 14.84365864 51.31324768 14.83372498 C45.63003783 14.82222853 39.94744867 14.84245427 34.26432037 14.87164211 C29.89774111 14.88997435 25.53131145 14.88971769 21.16470337 14.88400459 C19.06910328 14.88385105 16.97349326 14.88992283 14.87792969 14.90229607 C11.94988363 14.91714965 9.02299541 14.90657071 6.09498596 14.88938904 C5.22733109 14.89905701 4.35967621 14.90872498 3.46572876 14.91868591 C-0.36485761 14.87154254 -2.37521314 14.84383989 -5.55845642 12.57897949 C-7.6768925 9.39482887 -7.49144833 7.12065707 -7.01634216 3.38768005 C-4.90736301 0.59413099 -3.44967855 0.01185036 0 0 Z " fill="#D3DDE6" transform="translate(116.01634216308594,65.61231994628906)"/>
<path d="M0 0 C5.94 0 11.88 0 18 0 C18 19.47 18 38.94 18 59 C12.06 59 6.12 59 0 59 C0 39.53 0 20.06 0 0 Z " fill="#D0DBE5" transform="translate(75,379)"/>
<path d="M0 0 C-5.33333333 9.33333333 -10.66666667 18.66666667 -16 28 C-19.70897259 26.60582632 -23.07838312 24.92181521 -26.51953125 22.9609375 C-27.54111328 22.38085938 -28.56269531 21.80078125 -29.61523438 21.203125 C-30.67033203 20.59984375 -31.72542969 19.9965625 -32.8125 19.375 C-34.42415039 18.45847656 -34.42415039 18.45847656 -36.06835938 17.5234375 C-38.71386076 16.01844115 -41.3576625 14.51054209 -44 13 C-42.96603806 7.93902841 -40.16628734 4.65764125 -36.13671875 1.57421875 C-24.78234952 -5.89982236 -12.02097003 -6.07832344 0 0 Z " fill="#E65D5A" transform="translate(497,101)"/>
<path d="M0 0 C3.45854519 3.45854519 4 7.21904213 4 12 C1.36 12 -1.28 12 -4 12 C-3.52309796 10.37433394 -3.04340334 8.74948689 -2.5625 7.125 C-2.29566406 6.22007812 -2.02882812 5.31515625 -1.75390625 4.3828125 C-1 2 -1 2 0 0 Z " fill="#E64A57" transform="translate(161,311)"/>
</svg>
